<svg xmlns="http://www.w3.org/2000/svg" viewBox="0 0 1200 760"><defs><linearGradient id="s" x1="0" y1="0" x2="1" y2="1"><stop stop-color="#6e8ca2"/><stop offset="1" stop-color="#d5e4e8"/></linearGradient><linearGradient id="g"><stop stop-color="#d9f2f5" stop-opacity=".9"/><stop offset="1" stop-color="#527182"/></linearGradient></defs><rect width="1200" height="760" fill="url(#s)"/><circle cx="180" cy="150" r="90" fill="#fff" opacity=".25"/><path d="M0 620l210-90 190 80 170-110 200 100 190-100 240 110v150H0z" fill="#425b67" opacity=".8"/><path d="M270 620V300h530l180 100v220z" fill="#e8e8e2" stroke="#fff" stroke-width="4"/><path d="M800 300l180 100v220H800z" fill="#c6cccb"/><path d="M320 345h420v205H320z" fill="url(#g)"/><path d="M760 420h160v130H760z" fill="url(#g)"/><g stroke="#5c7078" stroke-width="7"><path d="M360 345v205M410 345v205M460 345v205M510 345v205M560 345v205M610 345v205M660 345v205M710 345v205"/></g><path d="M240 620h820" stroke="#fff" stroke-width="8"/><g fill="#3d5d54"><path d="M160 620q0-90 40-135 40 45 40 135z"/><path d="M1040 620q0-90 40-135 40 45 40 135z"/></g></svg>